# This file uses centimeters as units for non-parametric coordinates.

mtllib GrassPlane.mtl
v -50.000000 -0.000000 50.000000
v -25.000000 -0.000000 50.000000
v 0.000000 -0.000000 50.000000
v 25.000000 -0.000000 50.000000
v 50.000000 -0.000000 50.000000
v -50.000000 -0.000000 25.000000
v -25.000000 -0.000000 25.000000
v 0.000000 -0.000000 25.000000
v 25.000000 -0.000000 25.000000
v 50.000000 -0.000000 25.000000
v -50.000000 0.000000 0.000000
v -25.000000 0.000000 0.000000
v 0.000000 0.000000 0.000000
v 25.000000 0.000000 0.000000
v 50.000000 0.000000 0.000000
v -50.000000 0.000000 -25.000000
v -25.000000 0.000000 -25.000000
v 0.000000 0.000000 -25.000000
v 25.000000 0.000000 -25.000000
v 50.000000 0.000000 -25.000000
v -50.000000 0.000000 -50.000000
v -25.000000 0.000000 -50.000000
v 0.000000 0.000000 -50.000000
v 25.000000 0.000000 -50.000000
v 50.000000 0.000000 -50.000000
v -37.500000 -0.000000 37.500000
v -12.500000 -0.000000 37.500000
v 12.500000 -0.000000 37.500000
v 37.500000 -0.000000 37.500000
v -37.500000 -0.000000 12.500000
v -12.500000 -0.000000 12.500000
v 12.500000 -0.000000 12.500000
v 37.500000 -0.000000 12.500000
v -37.500000 0.000000 -12.500000
v -12.500000 0.000000 -12.500000
v 12.500000 0.000000 -12.500000
v 37.500000 0.000000 -12.500000
v -37.500000 0.000000 -37.500000
v -12.500000 0.000000 -37.500000
v 12.500000 0.000000 -37.500000
v 37.500000 0.000000 -37.500000
vt 0.000000 0.000000
vt 0.250000 0.000000
vt 0.500000 0.000000
vt 0.750000 0.000000
vt 1.000000 0.000000
vt 0.000000 0.250000
vt 0.250000 0.250000
vt 0.500000 0.250000
vt 0.750000 0.250000
vt 1.000000 0.250000
vt 0.000000 0.500000
vt 0.250000 0.500000
vt 0.500000 0.500000
vt 0.750000 0.500000
vt 1.000000 0.500000
vt 0.000000 0.750000
vt 0.250000 0.750000
vt 0.500000 0.750000
vt 0.750000 0.750000
vt 1.000000 0.750000
vt 0.000000 1.000000
vt 0.250000 1.000000
vt 0.500000 1.000000
vt 0.750000 1.000000
vt 1.000000 1.000000
vt 0.125000 0.125000
vt 0.375000 0.125000
vt 0.625000 0.125000
vt 0.875000 0.125000
vt 0.125000 0.375000
vt 0.375000 0.375000
vt 0.625000 0.375000
vt 0.875000 0.375000
vt 0.125000 0.625000
vt 0.375000 0.625000
vt 0.625000 0.625000
vt 0.875000 0.625000
vt 0.125000 0.875000
vt 0.375000 0.875000
vt 0.625000 0.875000
vt 0.875000 0.875000
vn 0.000000 1.000000 0.000000
vn 0.000000 1.000000 0.000000
vn 0.000000 1.000000 0.000000
vn 0.000000 1.000000 0.000000
vn 0.000000 1.000000 0.000000
vn 0.000000 1.000000 0.000000
vn 0.000000 1.000000 0.000000
vn 0.000000 1.000000 0.000000
vn 0.000000 1.000000 0.000000
vn 0.000000 1.000000 0.000000
vn 0.000000 1.000000 0.000000
vn 0.000000 1.000000 0.000000
vn 0.000000 1.000000 0.000000
vn 0.000000 1.000000 0.000000
vn 0.000000 1.000000 0.000000
vn 0.000000 1.000000 0.000000
vn 0.000000 1.000000 0.000000
vn 0.000000 1.000000 0.000000
vn 0.000000 1.000000 0.000000
vn 0.000000 1.000000 0.000000
vn 0.000000 1.000000 0.000000
vn 0.000000 1.000000 0.000000
vn 0.000000 1.000000 0.000000
vn 0.000000 1.000000 0.000000
vn 0.000000 1.000000 0.000000
vn 0.000000 1.000000 0.000000
vn 0.000000 1.000000 0.000000
vn 0.000000 1.000000 0.000000
vn 0.000000 1.000000 0.000000
vn 0.000000 1.000000 0.000000
vn 0.000000 1.000000 0.000000
vn 0.000000 1.000000 0.000000
vn 0.000000 1.000000 0.000000
vn 0.000000 1.000000 0.000000
vn 0.000000 1.000000 0.000000
vn 0.000000 1.000000 0.000000
vn 0.000000 1.000000 0.000000
vn 0.000000 1.000000 0.000000
vn 0.000000 1.000000 0.000000
vn 0.000000 1.000000 0.000000
vn 0.000000 1.000000 0.000000
g pPlane1
usemtl phong3SG
f 26/26/1 1/1/2 2/2/3
f 26/26/1 2/2/3 7/7/4
f 26/26/1 7/7/4 6/6/5
f 26/26/1 6/6/5 1/1/2
f 27/27/6 2/2/3 3/3/7
f 27/27/6 3/3/7 8/8/8
f 27/27/6 8/8/8 7/7/4
f 27/27/6 7/7/4 2/2/3
f 28/28/9 3/3/7 4/4/10
f 28/28/9 4/4/10 9/9/11
f 28/28/9 9/9/11 8/8/8
f 28/28/9 8/8/8 3/3/7
f 29/29/12 4/4/10 5/5/13
f 29/29/12 5/5/13 10/10/14
f 29/29/12 10/10/14 9/9/11
f 29/29/12 9/9/11 4/4/10
f 30/30/15 6/6/5 7/7/4
f 30/30/15 7/7/4 12/12/16
f 30/30/15 12/12/16 11/11/17
f 30/30/15 11/11/17 6/6/5
f 31/31/18 7/7/4 8/8/8
f 31/31/18 8/8/8 13/13/19
f 31/31/18 13/13/19 12/12/16
f 31/31/18 12/12/16 7/7/4
f 32/32/20 8/8/8 9/9/11
f 32/32/20 9/9/11 14/14/21
f 32/32/20 14/14/21 13/13/19
f 32/32/20 13/13/19 8/8/8
f 33/33/22 9/9/11 10/10/14
f 33/33/22 10/10/14 15/15/23
f 33/33/22 15/15/23 14/14/21
f 33/33/22 14/14/21 9/9/11
f 34/34/24 11/11/17 12/12/16
f 34/34/24 12/12/16 17/17/25
f 34/34/24 17/17/25 16/16/26
f 34/34/24 16/16/26 11/11/17
f 35/35/27 12/12/16 13/13/19
f 35/35/27 13/13/19 18/18/28
f 35/35/27 18/18/28 17/17/25
f 35/35/27 17/17/25 12/12/16
f 36/36/29 13/13/19 14/14/21
f 36/36/29 14/14/21 19/19/30
f 36/36/29 19/19/30 18/18/28
f 36/36/29 18/18/28 13/13/19
f 37/37/31 14/14/21 15/15/23
f 37/37/31 15/15/23 20/20/32
f 37/37/31 20/20/32 19/19/30
f 37/37/31 19/19/30 14/14/21
f 38/38/33 16/16/26 17/17/25
f 38/38/33 17/17/25 22/22/34
f 38/38/33 22/22/34 21/21/35
f 38/38/33 21/21/35 16/16/26
f 39/39/36 17/17/25 18/18/28
f 39/39/36 18/18/28 23/23/37
f 39/39/36 23/23/37 22/22/34
f 39/39/36 22/22/34 17/17/25
f 40/40/38 18/18/28 19/19/30
f 40/40/38 19/19/30 24/24/39
f 40/40/38 24/24/39 23/23/37
f 40/40/38 23/23/37 18/18/28
f 41/41/40 19/19/30 20/20/32
f 41/41/40 20/20/32 25/25/41
f 41/41/40 25/25/41 24/24/39
f 41/41/40 24/24/39 19/19/30
